<?xml version="1.0" standalone="no"?>
<!DOCTYPE svg PUBLIC "-//W3C//DTD SVG 20010904//EN"
 "http://www.w3.org/TR/2001/REC-SVG-20010904/DTD/svg10.dtd">
<svg version="1.0" xmlns="http://www.w3.org/2000/svg"
 width="512.000000pt" height="512.000000pt" viewBox="0 0 512.000000 512.000000"
 preserveAspectRatio="xMidYMid meet">
<metadata>
Created by potrace 1.11, written by Peter Selinger 2001-2013
</metadata>
<g transform="translate(0.000000,512.000000) scale(0.100000,-0.100000)"
fill="#000000" stroke="none">
<path d="M3937 4628 c-40 -19 -547 -527 -563 -565 -26 -61 -14 -126 33 -175
35 -37 84 -52 141 -43 43 6 57 16 170 128 l122 121 1 -460 c0 -252 2 -466 4
-475 1 -9 11 -28 20 -43 72 -110 239 -93 285 28 7 20 11 179 10 490 l0 460
117 -116 c123 -121 148 -136 218 -124 17 2 33 5 37 5 4 1 23 15 42 31 44 39
60 87 51 148 -6 45 -16 57 -258 300 -139 140 -264 262 -279 273 -34 25 -114
34 -151 17z"/>
<path d="M3355 4251 c-3 -5 -2 -12 3 -15 5 -3 9 1 9 9 0 17 -3 19 -12 6z"/>
<path d="M2339 4156 c-2 -2 -44 -7 -93 -11 -50 -4 -97 -8 -105 -10 -9 -1 -43
-6 -76 -10 -33 -3 -124 -20 -203 -36 -672 -139 -1183 -462 -1424 -899 -25 -46
-75 -171 -82 -206 -3 -10 -9 -41 -15 -67 -19 -80 -21 -152 -21 -718 0 -437 3
-561 14 -620 14 -72 47 -174 80 -251 9 -21 17 -41 18 -45 1 -5 10 -17 20 -27
10 -11 18 -24 18 -29 0 -35 261 -324 365 -403 329 -251 862 -441 1375 -492
156 -15 686 -7 790 12 14 3 43 7 65 10 163 20 532 118 660 176 11 5 54 23 95
41 342 145 585 330 781 595 83 113 156 277 189 427 11 50 15 1127 4 1222 -4
41 -10 74 -29 165 -22 107 -133 313 -185 344 -44 26 -119 24 -164 -3 -38 -24
-76 -91 -76 -135 0 -16 24 -78 54 -140 67 -137 78 -182 82 -319 5 -219 -75
-389 -272 -577 -101 -96 -290 -230 -325 -230 -5 0 -46 -18 -91 -40 -45 -23
-88 -38 -95 -35 -8 2 -12 1 -8 -4 5 -9 -131 -67 -245 -105 -153 -51 -406 -104
-600 -125 -87 -9 -575 -7 -620 3 -14 3 -47 8 -75 12 -103 13 -245 41 -315 62
-30 9 -57 16 -60 17 -25 2 -236 75 -321 110 -93 39 -259 123 -296 151 -17 13
-35 24 -38 24 -14 0 -140 104 -201 164 -130 131 -213 258 -240 366 -2 8 -9 38
-17 65 -33 119 -11 293 54 429 146 305 561 590 1051 720 286 76 486 101 793
100 246 0 308 -4 317 -18 5 -6 8 -7 8 -1 0 6 17 9 37 9 106 -4 187 116 146
216 -27 65 -65 93 -148 105 -51 7 -570 17 -576 11z m-1504 -2357 c107 -83 231
-158 357 -218 137 -65 298 -131 320 -131 8 0 18 -4 23 -9 28 -25 436 -119 595
-137 30 -3 66 -8 80 -11 69 -12 583 -10 695 2 66 8 121 12 123 10 2 -2 14 0
26 4 12 5 41 11 66 15 62 8 74 11 215 45 447 109 836 304 1094 549 l46 43 3
-138 c3 -165 -12 -245 -67 -359 -93 -191 -288 -379 -531 -511 -240 -131 -584
-242 -890 -287 -196 -29 -693 -29 -861 0 -34 6 -215 40 -254 48 -45 10 -207
59 -300 93 -173 61 -434 191 -483 240 -8 7 -23 18 -35 25 -37 19 -181 155
-248 234 -48 57 -107 164 -135 247 -25 74 -28 98 -32 252 l-4 169 69 -65 c37
-35 95 -85 128 -110z"/>
<path d="M4755 3849 c-4 -6 -5 -12 -2 -15 2 -3 7 2 10 11 7 17 1 20 -8 4z"/>
<path d="M2495 3666 c-41 -18 -83 -69 -91 -111 -5 -27 -11 -35 -28 -36 -197
-7 -376 -149 -434 -343 -64 -214 33 -452 228 -555 51 -28 165 -64 187 -60 43
8 43 7 42 -160 l0 -160 -189 -3 c-172 -3 -191 -5 -216 -24 -50 -37 -68 -71
-71 -129 -2 -59 19 -101 68 -137 34 -26 39 -26 234 -27 l170 -1 15 -47 c22
-68 74 -107 144 -107 65 -1 136 32 136 63 0 6 4 11 9 11 5 0 12 18 16 40 6 35
10 40 33 41 15 0 34 2 42 4 8 2 29 6 45 9 53 10 169 74 214 118 94 92 141 194
147 323 10 199 -91 368 -271 456 -71 34 -106 43 -197 49 -5 0 -8 72 -8 159 l0
160 189 3 c173 3 192 5 217 24 52 39 69 71 69 132 -1 63 -19 99 -67 133 -38
28 -37 27 -234 28 l-172 1 -6 35 c-18 93 -132 150 -221 111z m-95 -627 l0
-161 -22 6 c-13 3 -28 6 -35 6 -23 0 -82 61 -93 96 -32 96 40 206 138 213 9 1
12 -37 12 -160z m398 -498 c63 -34 97 -135 69 -203 -17 -42 -69 -83 -114 -93
l-33 -7 0 162 0 161 29 -4 c15 -3 38 -10 49 -16z"/>
</g>
</svg>
